<svg viewBox="0 0 200 200" xmlns="http://www.w3.org/2000/svg">
  <defs>
    <style>
      .flow { fill: none; stroke: #f5f5f5; stroke-width: 3; stroke-linecap: round; }
      .node { fill: #f5f5f5; }
      .core { fill: none; stroke: #f5f5f5; stroke-width: 4; }
    </style>
  </defs>
  
  <circle class="core" cx="100" cy="100" r="20" />
  
  <path class="flow" d="M 60,60 Q 75,75 80,100" />
  <circle class="node" cx="60" cy="60" r="4" />
  
  <path class="flow" d="M 140,60 Q 125,75 120,100" />
  <circle class="node" cx="140" cy="60" r="4" />
  
  <path class="flow" d="M 100,80 Q 100,50 100,30" />
  <circle class="node" cx="100" cy="30" r="4" />
  
  <path class="flow" d="M 80,100 Q 50,100 30,100" />
  <circle class="node" cx="30" cy="100" r="4" />
  
  <path class="flow" d="M 120,100 Q 150,100 170,100" />
  <circle class="node" cx="170" cy="100" r="4" />
  
  <path class="flow" d="M 100,120 Q 75,135 60,150" />
  <circle class="node" cx="60" cy="150" r="4" />
  
  <path class="flow" d="M 100,120 Q 125,135 140,150" />
  <circle class="node" cx="140" cy="150" r="4" />
  
  <path class="flow" d="M 100,120 Q 100,145 100,170" />
  <circle class="node" cx="100" cy="170" r="4" />
</svg>



